<mxfile host="app.diagrams.net" modified="2023-01-24T08:40:49.307Z" agent="5.0 (Macintosh; Intel Mac OS X 10_15_7) AppleWebKit/605.1.15 (KHTML, like Gecko) Version/16.1 Safari/605.1.15" etag="vyQ7UPdIjWXrEUUs6KzD" version="20.8.8" type="github" pages="2">
  <diagram name="Page-1" id="aO4e9EhAmQnT_-Hhs0u1">
    <mxGraphModel dx="1034" dy="771" grid="1" gridSize="10" guides="1" tooltips="1" connect="1" arrows="1" fold="1" page="1" pageScale="1" pageWidth="827" pageHeight="1169" math="0" shadow="0">
      <root>
        <mxCell id="0" />
        <mxCell id="1" parent="0" />
        <mxCell id="sYThEHSdTUWQBhuM3Ifp-1" value="1. 2 tier arch.&lt;br&gt;2. 3 tier&lt;br&gt;3. N tier arch." style="rounded=1;whiteSpace=wrap;html=1;fontSize=28;" vertex="1" parent="1">
          <mxGeometry x="170" y="120" width="360" height="160" as="geometry" />
        </mxCell>
        <mxCell id="sYThEHSdTUWQBhuM3Ifp-16" value="" style="group" vertex="1" connectable="0" parent="1">
          <mxGeometry x="110" y="440" width="630" height="440" as="geometry" />
        </mxCell>
        <mxCell id="sYThEHSdTUWQBhuM3Ifp-2" value="Client" style="rounded=1;whiteSpace=wrap;html=1;fontSize=28;" vertex="1" parent="sYThEHSdTUWQBhuM3Ifp-16">
          <mxGeometry width="120" height="90" as="geometry" />
        </mxCell>
        <mxCell id="sYThEHSdTUWQBhuM3Ifp-3" value="Client" style="rounded=1;whiteSpace=wrap;html=1;fontSize=28;" vertex="1" parent="sYThEHSdTUWQBhuM3Ifp-16">
          <mxGeometry y="350" width="120" height="90" as="geometry" />
        </mxCell>
        <mxCell id="sYThEHSdTUWQBhuM3Ifp-4" value="Client" style="rounded=1;whiteSpace=wrap;html=1;fontSize=28;" vertex="1" parent="sYThEHSdTUWQBhuM3Ifp-16">
          <mxGeometry y="230" width="120" height="90" as="geometry" />
        </mxCell>
        <mxCell id="sYThEHSdTUWQBhuM3Ifp-5" value="Client" style="rounded=1;whiteSpace=wrap;html=1;fontSize=28;" vertex="1" parent="sYThEHSdTUWQBhuM3Ifp-16">
          <mxGeometry y="120" width="120" height="90" as="geometry" />
        </mxCell>
        <mxCell id="sYThEHSdTUWQBhuM3Ifp-6" value="Server" style="rounded=1;whiteSpace=wrap;html=1;fontSize=28;" vertex="1" parent="sYThEHSdTUWQBhuM3Ifp-16">
          <mxGeometry x="370" y="20" width="260" height="340" as="geometry" />
        </mxCell>
        <mxCell id="sYThEHSdTUWQBhuM3Ifp-14" value="Application" style="rounded=1;whiteSpace=wrap;html=1;fontSize=28;" vertex="1" parent="sYThEHSdTUWQBhuM3Ifp-16">
          <mxGeometry x="410" y="40" width="170" height="60" as="geometry" />
        </mxCell>
        <mxCell id="sYThEHSdTUWQBhuM3Ifp-15" value="DB" style="shape=cylinder3;whiteSpace=wrap;html=1;boundedLbl=1;backgroundOutline=1;size=15;fontSize=28;" vertex="1" parent="sYThEHSdTUWQBhuM3Ifp-16">
          <mxGeometry x="470" y="230" width="60" height="80" as="geometry" />
        </mxCell>
        <mxCell id="sYThEHSdTUWQBhuM3Ifp-7" style="edgeStyle=orthogonalEdgeStyle;rounded=0;orthogonalLoop=1;jettySize=auto;html=1;entryX=-0.015;entryY=0.129;entryDx=0;entryDy=0;entryPerimeter=0;fontSize=28;" edge="1" parent="sYThEHSdTUWQBhuM3Ifp-16" source="sYThEHSdTUWQBhuM3Ifp-2" target="sYThEHSdTUWQBhuM3Ifp-6">
          <mxGeometry relative="1" as="geometry" />
        </mxCell>
        <mxCell id="sYThEHSdTUWQBhuM3Ifp-8" style="edgeStyle=orthogonalEdgeStyle;rounded=0;orthogonalLoop=1;jettySize=auto;html=1;entryX=-0.008;entryY=0.438;entryDx=0;entryDy=0;entryPerimeter=0;fontSize=28;" edge="1" parent="sYThEHSdTUWQBhuM3Ifp-16" source="sYThEHSdTUWQBhuM3Ifp-5" target="sYThEHSdTUWQBhuM3Ifp-6">
          <mxGeometry relative="1" as="geometry" />
        </mxCell>
        <mxCell id="sYThEHSdTUWQBhuM3Ifp-9" style="edgeStyle=orthogonalEdgeStyle;rounded=0;orthogonalLoop=1;jettySize=auto;html=1;entryX=0;entryY=0.75;entryDx=0;entryDy=0;fontSize=28;" edge="1" parent="sYThEHSdTUWQBhuM3Ifp-16" source="sYThEHSdTUWQBhuM3Ifp-4" target="sYThEHSdTUWQBhuM3Ifp-6">
          <mxGeometry relative="1" as="geometry" />
        </mxCell>
        <mxCell id="sYThEHSdTUWQBhuM3Ifp-12" style="edgeStyle=orthogonalEdgeStyle;rounded=0;orthogonalLoop=1;jettySize=auto;html=1;entryX=0.662;entryY=1.003;entryDx=0;entryDy=0;entryPerimeter=0;fontSize=28;" edge="1" parent="sYThEHSdTUWQBhuM3Ifp-16" source="sYThEHSdTUWQBhuM3Ifp-3" target="sYThEHSdTUWQBhuM3Ifp-6">
          <mxGeometry relative="1" as="geometry" />
        </mxCell>
        <mxCell id="sYThEHSdTUWQBhuM3Ifp-13" style="edgeStyle=orthogonalEdgeStyle;rounded=0;orthogonalLoop=1;jettySize=auto;html=1;entryX=1;entryY=0.75;entryDx=0;entryDy=0;fontSize=28;" edge="1" parent="sYThEHSdTUWQBhuM3Ifp-16" source="sYThEHSdTUWQBhuM3Ifp-6" target="sYThEHSdTUWQBhuM3Ifp-2">
          <mxGeometry relative="1" as="geometry" />
        </mxCell>
        <mxCell id="sYThEHSdTUWQBhuM3Ifp-30" value="2 Tier Arch." style="rounded=1;whiteSpace=wrap;html=1;fontSize=28;" vertex="1" parent="1">
          <mxGeometry x="240" y="330" width="410" height="60" as="geometry" />
        </mxCell>
        <mxCell id="sYThEHSdTUWQBhuM3Ifp-31" value="3 Tier Arch." style="rounded=1;whiteSpace=wrap;html=1;fontSize=28;" vertex="1" parent="1">
          <mxGeometry x="209" y="950" width="410" height="60" as="geometry" />
        </mxCell>
        <mxCell id="sYThEHSdTUWQBhuM3Ifp-18" value="Client" style="rounded=1;whiteSpace=wrap;html=1;fontSize=28;" vertex="1" parent="1">
          <mxGeometry x="120" y="1110" width="120" height="90" as="geometry" />
        </mxCell>
        <mxCell id="sYThEHSdTUWQBhuM3Ifp-19" value="Client" style="rounded=1;whiteSpace=wrap;html=1;fontSize=28;" vertex="1" parent="1">
          <mxGeometry x="120" y="1460" width="120" height="90" as="geometry" />
        </mxCell>
        <mxCell id="sYThEHSdTUWQBhuM3Ifp-20" value="Client" style="rounded=1;whiteSpace=wrap;html=1;fontSize=28;" vertex="1" parent="1">
          <mxGeometry x="120" y="1340" width="120" height="90" as="geometry" />
        </mxCell>
        <mxCell id="sYThEHSdTUWQBhuM3Ifp-21" value="Client" style="rounded=1;whiteSpace=wrap;html=1;fontSize=28;" vertex="1" parent="1">
          <mxGeometry x="120" y="1230" width="120" height="90" as="geometry" />
        </mxCell>
        <mxCell id="sYThEHSdTUWQBhuM3Ifp-32" style="edgeStyle=orthogonalEdgeStyle;rounded=0;orthogonalLoop=1;jettySize=auto;html=1;entryX=0;entryY=0.5;entryDx=0;entryDy=0;entryPerimeter=0;fontSize=28;" edge="1" parent="1" source="sYThEHSdTUWQBhuM3Ifp-22" target="sYThEHSdTUWQBhuM3Ifp-24">
          <mxGeometry relative="1" as="geometry" />
        </mxCell>
        <mxCell id="sYThEHSdTUWQBhuM3Ifp-22" value="Server" style="rounded=1;whiteSpace=wrap;html=1;fontSize=28;" vertex="1" parent="1">
          <mxGeometry x="490" y="1130" width="260" height="340" as="geometry" />
        </mxCell>
        <mxCell id="sYThEHSdTUWQBhuM3Ifp-23" value="Application" style="rounded=1;whiteSpace=wrap;html=1;fontSize=28;" vertex="1" parent="1">
          <mxGeometry x="530" y="1150" width="170" height="60" as="geometry" />
        </mxCell>
        <mxCell id="sYThEHSdTUWQBhuM3Ifp-33" style="edgeStyle=orthogonalEdgeStyle;rounded=0;orthogonalLoop=1;jettySize=auto;html=1;entryX=1.019;entryY=0.694;entryDx=0;entryDy=0;entryPerimeter=0;fontSize=28;" edge="1" parent="1" source="sYThEHSdTUWQBhuM3Ifp-24" target="sYThEHSdTUWQBhuM3Ifp-22">
          <mxGeometry relative="1" as="geometry">
            <Array as="points">
              <mxPoint x="930" y="1350" />
              <mxPoint x="825" y="1350" />
              <mxPoint x="825" y="1366" />
            </Array>
          </mxGeometry>
        </mxCell>
        <mxCell id="sYThEHSdTUWQBhuM3Ifp-24" value="DB" style="shape=cylinder3;whiteSpace=wrap;html=1;boundedLbl=1;backgroundOutline=1;size=15;fontSize=28;" vertex="1" parent="1">
          <mxGeometry x="900" y="1250" width="60" height="80" as="geometry" />
        </mxCell>
        <mxCell id="sYThEHSdTUWQBhuM3Ifp-25" style="edgeStyle=orthogonalEdgeStyle;rounded=0;orthogonalLoop=1;jettySize=auto;html=1;entryX=-0.015;entryY=0.129;entryDx=0;entryDy=0;entryPerimeter=0;fontSize=28;" edge="1" parent="1" source="sYThEHSdTUWQBhuM3Ifp-18" target="sYThEHSdTUWQBhuM3Ifp-22">
          <mxGeometry relative="1" as="geometry" />
        </mxCell>
        <mxCell id="sYThEHSdTUWQBhuM3Ifp-26" style="edgeStyle=orthogonalEdgeStyle;rounded=0;orthogonalLoop=1;jettySize=auto;html=1;entryX=-0.008;entryY=0.438;entryDx=0;entryDy=0;entryPerimeter=0;fontSize=28;" edge="1" parent="1" source="sYThEHSdTUWQBhuM3Ifp-21" target="sYThEHSdTUWQBhuM3Ifp-22">
          <mxGeometry relative="1" as="geometry" />
        </mxCell>
        <mxCell id="sYThEHSdTUWQBhuM3Ifp-27" style="edgeStyle=orthogonalEdgeStyle;rounded=0;orthogonalLoop=1;jettySize=auto;html=1;entryX=0;entryY=0.75;entryDx=0;entryDy=0;fontSize=28;" edge="1" parent="1" source="sYThEHSdTUWQBhuM3Ifp-20" target="sYThEHSdTUWQBhuM3Ifp-22">
          <mxGeometry relative="1" as="geometry" />
        </mxCell>
        <mxCell id="sYThEHSdTUWQBhuM3Ifp-28" style="edgeStyle=orthogonalEdgeStyle;rounded=0;orthogonalLoop=1;jettySize=auto;html=1;entryX=0.662;entryY=1.003;entryDx=0;entryDy=0;entryPerimeter=0;fontSize=28;" edge="1" parent="1" source="sYThEHSdTUWQBhuM3Ifp-19" target="sYThEHSdTUWQBhuM3Ifp-22">
          <mxGeometry relative="1" as="geometry" />
        </mxCell>
        <mxCell id="sYThEHSdTUWQBhuM3Ifp-29" style="edgeStyle=orthogonalEdgeStyle;rounded=0;orthogonalLoop=1;jettySize=auto;html=1;entryX=1;entryY=0.75;entryDx=0;entryDy=0;fontSize=28;" edge="1" parent="1" source="sYThEHSdTUWQBhuM3Ifp-22" target="sYThEHSdTUWQBhuM3Ifp-18">
          <mxGeometry relative="1" as="geometry" />
        </mxCell>
        <mxCell id="sYThEHSdTUWQBhuM3Ifp-43" style="edgeStyle=orthogonalEdgeStyle;rounded=0;orthogonalLoop=1;jettySize=auto;html=1;entryX=0;entryY=0.25;entryDx=0;entryDy=0;fontSize=28;" edge="1" parent="1" source="sYThEHSdTUWQBhuM3Ifp-34" target="sYThEHSdTUWQBhuM3Ifp-38">
          <mxGeometry relative="1" as="geometry" />
        </mxCell>
        <mxCell id="sYThEHSdTUWQBhuM3Ifp-34" value="Client" style="rounded=1;whiteSpace=wrap;html=1;fontSize=28;" vertex="1" parent="1">
          <mxGeometry x="110" y="1740" width="120" height="90" as="geometry" />
        </mxCell>
        <mxCell id="sYThEHSdTUWQBhuM3Ifp-46" style="edgeStyle=orthogonalEdgeStyle;rounded=0;orthogonalLoop=1;jettySize=auto;html=1;entryX=0.25;entryY=1;entryDx=0;entryDy=0;fontSize=28;" edge="1" parent="1" source="sYThEHSdTUWQBhuM3Ifp-35" target="sYThEHSdTUWQBhuM3Ifp-38">
          <mxGeometry relative="1" as="geometry" />
        </mxCell>
        <mxCell id="sYThEHSdTUWQBhuM3Ifp-35" value="Client" style="rounded=1;whiteSpace=wrap;html=1;fontSize=28;" vertex="1" parent="1">
          <mxGeometry x="110" y="2090" width="120" height="90" as="geometry" />
        </mxCell>
        <mxCell id="sYThEHSdTUWQBhuM3Ifp-45" style="edgeStyle=orthogonalEdgeStyle;rounded=0;orthogonalLoop=1;jettySize=auto;html=1;entryX=0;entryY=0.75;entryDx=0;entryDy=0;fontSize=28;" edge="1" parent="1" source="sYThEHSdTUWQBhuM3Ifp-36" target="sYThEHSdTUWQBhuM3Ifp-38">
          <mxGeometry relative="1" as="geometry" />
        </mxCell>
        <mxCell id="sYThEHSdTUWQBhuM3Ifp-36" value="Client" style="rounded=1;whiteSpace=wrap;html=1;fontSize=28;" vertex="1" parent="1">
          <mxGeometry x="110" y="1970" width="120" height="90" as="geometry" />
        </mxCell>
        <mxCell id="sYThEHSdTUWQBhuM3Ifp-44" style="edgeStyle=orthogonalEdgeStyle;rounded=0;orthogonalLoop=1;jettySize=auto;html=1;entryX=0;entryY=0.5;entryDx=0;entryDy=0;fontSize=28;" edge="1" parent="1" source="sYThEHSdTUWQBhuM3Ifp-37" target="sYThEHSdTUWQBhuM3Ifp-38">
          <mxGeometry relative="1" as="geometry" />
        </mxCell>
        <mxCell id="sYThEHSdTUWQBhuM3Ifp-37" value="Client" style="rounded=1;whiteSpace=wrap;html=1;fontSize=28;" vertex="1" parent="1">
          <mxGeometry x="110" y="1860" width="120" height="90" as="geometry" />
        </mxCell>
        <mxCell id="sYThEHSdTUWQBhuM3Ifp-47" style="edgeStyle=orthogonalEdgeStyle;rounded=0;orthogonalLoop=1;jettySize=auto;html=1;fontSize=28;" edge="1" parent="1" source="sYThEHSdTUWQBhuM3Ifp-38" target="sYThEHSdTUWQBhuM3Ifp-42">
          <mxGeometry relative="1" as="geometry" />
        </mxCell>
        <mxCell id="sYThEHSdTUWQBhuM3Ifp-48" style="edgeStyle=orthogonalEdgeStyle;rounded=0;orthogonalLoop=1;jettySize=auto;html=1;entryX=0;entryY=0.5;entryDx=0;entryDy=0;entryPerimeter=0;fontSize=28;" edge="1" parent="1" source="sYThEHSdTUWQBhuM3Ifp-38" target="sYThEHSdTUWQBhuM3Ifp-40">
          <mxGeometry relative="1" as="geometry" />
        </mxCell>
        <mxCell id="sYThEHSdTUWQBhuM3Ifp-49" style="edgeStyle=orthogonalEdgeStyle;rounded=0;orthogonalLoop=1;jettySize=auto;html=1;entryX=0;entryY=0;entryDx=0;entryDy=52.5;entryPerimeter=0;fontSize=28;" edge="1" parent="1" source="sYThEHSdTUWQBhuM3Ifp-38" target="sYThEHSdTUWQBhuM3Ifp-41">
          <mxGeometry relative="1" as="geometry" />
        </mxCell>
        <mxCell id="sYThEHSdTUWQBhuM3Ifp-38" value="Server" style="rounded=1;whiteSpace=wrap;html=1;fontSize=28;" vertex="1" parent="1">
          <mxGeometry x="480" y="1760" width="260" height="340" as="geometry" />
        </mxCell>
        <mxCell id="sYThEHSdTUWQBhuM3Ifp-39" value="Application" style="rounded=1;whiteSpace=wrap;html=1;fontSize=28;" vertex="1" parent="1">
          <mxGeometry x="520" y="1780" width="170" height="60" as="geometry" />
        </mxCell>
        <mxCell id="sYThEHSdTUWQBhuM3Ifp-40" value="DB" style="shape=cylinder3;whiteSpace=wrap;html=1;boundedLbl=1;backgroundOutline=1;size=15;fontSize=28;" vertex="1" parent="1">
          <mxGeometry x="890" y="1880" width="60" height="80" as="geometry" />
        </mxCell>
        <mxCell id="sYThEHSdTUWQBhuM3Ifp-41" value="DB" style="shape=cylinder3;whiteSpace=wrap;html=1;boundedLbl=1;backgroundOutline=1;size=15;fontSize=28;" vertex="1" parent="1">
          <mxGeometry x="890" y="2010" width="60" height="80" as="geometry" />
        </mxCell>
        <mxCell id="sYThEHSdTUWQBhuM3Ifp-42" value="DB" style="shape=cylinder3;whiteSpace=wrap;html=1;boundedLbl=1;backgroundOutline=1;size=15;fontSize=28;" vertex="1" parent="1">
          <mxGeometry x="890" y="1760" width="60" height="80" as="geometry" />
        </mxCell>
        <mxCell id="sYThEHSdTUWQBhuM3Ifp-50" value="we can have multiple DBs as per Req." style="rounded=1;whiteSpace=wrap;html=1;fontSize=28;fillColor=#f8cecc;strokeColor=#b85450;" vertex="1" parent="1">
          <mxGeometry x="950" y="1880" width="180" height="100" as="geometry" />
        </mxCell>
      </root>
    </mxGraphModel>
  </diagram>
  <diagram id="WszoE7bLpcmutJY6i7rw" name="HTML Page Structure">
    <mxGraphModel dx="1194" dy="647" grid="1" gridSize="10" guides="1" tooltips="1" connect="1" arrows="1" fold="1" page="1" pageScale="1" pageWidth="827" pageHeight="1169" math="0" shadow="0">
      <root>
        <mxCell id="0" />
        <mxCell id="1" parent="0" />
        <mxCell id="rgoPsQ-f6ry2AQlSg6pN-1" value="Structure of HTML Page:&lt;br&gt;&amp;lt;!DOCTYPE&amp;gt;&lt;br&gt;&amp;lt;HTML&amp;gt;&lt;br&gt;&amp;lt;HEAD&amp;gt;&lt;br&gt;&amp;lt;SCRIPT&amp;gt;&amp;lt;/SCRIPT&amp;gt;&lt;br&gt;&amp;lt;TITLE&amp;gt;&amp;lt;/TITLE&amp;gt;&lt;br&gt;&amp;lt;LINK/&amp;gt;&lt;br&gt;&amp;lt;/HEAD&amp;gt;&lt;br&gt;&amp;lt;BODY&amp;gt;&amp;lt;/BODY&amp;gt;&lt;br&gt;&amp;lt;/HTML&amp;gt;" style="rounded=1;whiteSpace=wrap;html=1;fontSize=28;" vertex="1" parent="1">
          <mxGeometry x="110" y="90" width="540" height="560" as="geometry" />
        </mxCell>
      </root>
    </mxGraphModel>
  </diagram>
</mxfile>
